mtllib dice.mtl

v 0.500000 -0.500000 -0.500000 # Bot right, south
v 0.500000 -0.500000 0.500000 # Bot right, north
v -0.500000 -0.500000 0.500000 # Bot left, north
v -0.500000 -0.500000 -0.500000 # Bot left, south
v 0.500000 0.500000 -0.500000  # Top right, south
v 0.500000 0.500000 0.500000 # Top right, north
v -0.500000 0.500000 0.500000 # Top left, north
v -0.500000 0.500000 -0.500000 # Top left, south

vt 0.666666 0.500000
vt 0.666666 0.000000
vt 1.000000 0.000000
vt 1.000000 0.500000
vt 0.333333 0.500000
vt 0.333333 0.000000
vt 0.333333 1.000000
vt 0.000000 0.500000
vt 0.000000 1.000000
vt 0.666666 1.000000
vt 0.000000 0.000000
vt 1.000000 1.000000

vn 0.000000 0.000000 -1.000000
vn -1.000000 -0.000000 -0.000000
vn -0.000000 -0.000000 1.000000
vn -0.000001 0.000000 1.000000
vn 1.000000 -0.000000 0.000000
vn 1.000000 0.000000 0.000001
vn 0.000000 1.000000 -0.000000
vn -0.000000 -1.000000 0.000000

f 5/1/1 1/2/1 4/3/1 # South face (6)
f 5/1/1 4/3/1 8/4/1

f 3/2/2 7/1/2 8/5/2 # West face (5)
f 3/2/2 8/5/2 4/6/2

f 2/5/3 6/7/3 3/8/3 # North face (1)
f 6/7/4 7/9/4 3/8/4

f 1/1/5 5/10/5 2/5/5 # East face (2)
f 5/10/6 6/7/6 2/5/6

f 5/5/7 8/8/7 6/6/7 # Top face (4)
f 8/8/7 7/11/7 6/6/7

f 1/10/8 2/1/8 3/4/8 # Bot face (3)
f 1/10/8 3/4/8 4/12/8